<svg width="39" height="39" viewBox="0 0 39 39" fill="none" xmlns="http://www.w3.org/2000/svg">
<path d="M19.5 39C30.2537 39 39 30.2537 39 19.5C39 8.74632 30.2537 0 19.5 0C8.74632 0 0 8.74632 0 19.5C0 30.2537 8.74632 39 19.5 39ZM19.5 1.57721C29.3854 1.57721 37.4228 9.61458 37.4228 19.5C37.4228 29.3854 29.3854 37.4228 19.5 37.4228C9.61458 37.4228 1.57721 29.3854 1.57721 19.5C1.57721 9.61458 9.61458 1.57721 19.5 1.57721Z" fill="#ECAA00"/>
<path d="M21.3869 25.7668C21.5399 25.9196 21.7493 26 21.9507 26C22.152 26 22.3615 25.9196 22.5145 25.7668C22.8286 25.4533 22.8286 24.9548 22.5145 24.6412L17.0938 19.2302L22.5145 13.8191C22.8286 13.5056 22.8286 13.0071 22.5145 12.6935C22.2004 12.3799 21.701 12.3799 21.3869 12.6935L15.4023 18.6674C15.0882 18.9809 15.0882 19.4794 15.4023 19.793L21.3869 25.7668Z" fill="#ECAA00"/>
</svg>
