<svg width="21" height="21" viewBox="0 0 21 21" fill="none" xmlns="http://www.w3.org/2000/svg">
<path d="M16.4273 13.5704C15.5957 14.7127 14.2485 15.4566 12.7307 15.4566H10.6009C9.86521 15.4566 9.23868 14.9895 9.00144 14.3358C8.7086 14.2484 8.42142 14.135 8.14119 13.9958C7.54774 13.7009 7.00888 13.3014 6.53453 12.8066C3.45764 13.4825 1.15479 16.2242 1.15479 19.5042V19.9329C1.15479 20.5222 1.63256 21 2.2219 21H18.7783C19.3677 21 19.8454 20.5222 19.8454 19.9329V19.5042C19.8454 16.9704 18.4711 14.7577 16.4273 13.5704Z" fill="#ECAA00"/>
<path d="M5.40039 10.6071C5.85902 10.6071 6.25822 10.3529 6.46504 9.97777C6.47047 9.99262 6.476 10.0074 6.48158 10.0221C6.48322 10.0266 6.48486 10.031 6.48651 10.0354C6.97169 11.3125 7.91572 12.3831 9.16055 12.8509C9.46162 12.3725 9.99399 12.0543 10.601 12.0543H12.7308C12.9432 12.0543 13.1409 11.9944 13.3142 11.8975C13.6054 11.7347 13.8671 11.3218 14.0023 11.1029C14.2186 10.7526 14.3862 10.3816 14.5349 9.97713C14.6184 10.1288 14.7332 10.2607 14.8708 10.3641V10.8864C14.8708 12.0664 13.9108 13.0265 12.7307 13.0265H10.601C10.1983 13.0265 9.87192 13.3529 9.87192 13.7555C9.87192 14.1582 10.1983 14.4846 10.601 14.4846H12.7307C14.7148 14.4846 16.3289 12.8704 16.3289 10.8864V10.3641C16.624 10.1424 16.815 9.78955 16.815 9.39204V7.19372V6.35074C16.815 5.94505 16.616 5.58611 16.3105 5.3654C16.0736 2.36722 13.5582 0 10.5001 0C7.44206 0 4.92668 2.36722 4.68976 5.36536C4.38426 5.58606 4.1853 5.94505 4.1853 6.35069V9.39195C4.1853 10.0649 4.73202 10.6071 5.40039 10.6071ZM10.5001 1.45813C12.7639 1.45813 14.6311 3.18814 14.8494 5.39551C14.7061 5.50821 14.5887 5.65226 14.5079 5.81755C13.8199 4.02276 12.2843 2.77318 10.5001 2.77318C8.67743 2.77318 7.1664 4.0657 6.49501 5.81037C6.49409 5.81275 6.49323 5.81517 6.49231 5.81759C6.41145 5.6523 6.29408 5.50826 6.15081 5.39555C6.36919 3.18814 8.23634 1.45813 10.5001 1.45813Z" fill="#ECAA00"/>
</svg>
